<svg xmlns="http://www.w3.org/2000/svg" width="33" height="33" data-name="图层 2" viewBox="0 0 49.06 44.67"><g data-name="图层 1"><path d="M46.87 39.7c-1.1-1.26-2.66-3.38-2.51-5.09 5.45-7.01 6.25-18.04 1.93-25.92-.3-.55-.95-.81-1.55-.64-5.94 1.71-10.93 6.18-13.71 11.66-.56 1.13-1.11 2.31-2.44 2.55-1.58.29-4.36 2.51-5.43 4.12-.47.46-.11 1.34.56 1.32.13-.01 4.37-.4 4.51-.41 1.39 11.9-16.2 13.32-16.71 1.33-.09-4.74 3.54-5.54 2.26-7.41-1.21-1.7-3.29.54-4.5 1.11-3.05 2.29-4.75 0-4.79-3.43-.26-2.1.16-3.82-.92-5.46-.66-.92-2.1-.79-2.55.25-6.66 22.16 21.16 40.58 38.99 25.5 1.73.87 4.22 1.81 6.17 1.8.69.14 1.18-.77.7-1.27Zm-3.51-17.42c-2.57.5-3.33-3.34-.79-3.88 2.57-.49 3.32 3.34.79 3.88" style="fill:#017aff"/><path d="M5.33 10.23c3.01 3.08-.36 10.31 2.61 10.22.41-.04.75-.28.93-.64 1.68-2.04 3.38-2.99 6.17-3.37 1.19-.14 2.18 1.47 4.28.86 2.6-.75 2.01-3.86.72-4.56-1.75-1.34-5.62-1.25-7.23 0 3.83-3.52 10.97-4.21 12.48 1.92.89 3.22 4.16 3.42 5.26.23 1.34-7.03-7.33-12.62-13.66-10.36 1.55-.79 3.32-1.01 4.85-1.78 1-.64 1.21-2.07 0-2.67C16.62-.67 11.2 4.55 9.46 9.06 8.72 7.2 6.28 5.02 4.12 5.24c-1.13.24-1.56 1.63-.78 2.48.75.9 1.32 1.57 1.97 2.52ZM25.64 2.7h.03c3.78-.43 4.27 2.23 6.58 1.86 2.16-.42 1.99-3.29-.06-3.77-2.08-.65-5 .1-6.68 1.66-.08.1 0 .26.12.26Z" style="fill:#003cfc"/></g></svg>